<svg width="358" height="402" viewBox="0 0 358 402" fill="none" xmlns="http://www.w3.org/2000/svg">
<rect width="358" height="402" fill="#E5E5E5"/>
<rect x="6" y="218" width="104" height="183" fill="#EFE4D5"/>
<rect x="110" y="96" width="140" height="305" fill="#EFE4D5"/>
<path d="M179.5 0L247.483 94.5H111.517L179.5 0Z" fill="#C77C24"/>
<path d="M179.5 0L247.483 94.5H111.517L179.5 0Z" fill="#C77C24"/>
<path d="M179.5 0L247.483 94.5H111.517L179.5 0Z" fill="#C77C24"/>
<rect x="250" y="176" width="105" height="225" fill="#EFE4D5"/>
<path d="M58.0237 165L116.047 218.25H0L58.0237 165Z" fill="#C77C24"/>
<path d="M303 110L357.56 179.75H248.44L303 110Z" fill="#C77C24"/>
<rect x="288" y="206" width="30" height="45" fill="#C4C4C4"/>
<rect x="167" y="141" width="26" height="47" fill="#C4C4C4"/>
<rect x="47" y="249" width="21" height="51" fill="#C4C4C4"/>
<line x1="180.5" y1="141" x2="180.5" y2="188" stroke="black"/>
<line x1="58.5" y1="249" x2="58.5" y2="299" stroke="black"/>
<line x1="303.5" y1="206" x2="303.5" y2="251" stroke="black"/>
<rect x="143" y="302" width="50" height="99" fill="#C4C4C4"/>
<line x1="143.354" y1="301.646" x2="168.354" y2="326.646" stroke="black"/>
<line x1="168.5" y1="327.01" x2="167.5" y2="378.01" stroke="black"/>
<line x1="142.654" y1="400.639" x2="166.654" y2="377.639" stroke="black"/>
<line x1="143" y1="352.5" x2="167" y2="352.5" stroke="black"/>
<line x1="168.339" y1="378.368" x2="143.339" y2="401.368" stroke="black"/>
<rect x="318" y="310" width="21" height="11" fill="#C4C4C4"/>
<rect x="74" y="372" width="21" height="11" fill="#C4C4C4"/>
<rect x="159" y="277" width="21" height="11" fill="#C4C4C4"/>
<rect x="329" y="383" width="21" height="11" fill="#C4C4C4"/>
<rect x="300" y="378" width="21" height="11" fill="#C4C4C4"/>
<rect x="21" y="383" width="21" height="11" fill="#C4C4C4"/>
<rect x="62" y="321" width="21" height="11" fill="#C4C4C4"/>
<rect x="32" y="343" width="21" height="11" fill="#C4C4C4"/>
<rect x="215" y="294" width="21" height="11" fill="#C4C4C4"/>
<rect x="211" y="343" width="21" height="11" fill="#C4C4C4"/>
<rect x="214" y="372" width="21" height="11" fill="#C4C4C4"/>
<rect x="116" y="332" width="21" height="11" fill="#C4C4C4"/>
<rect x="194" y="224" width="21" height="11" fill="#C4C4C4"/>
<rect x="14" y="315" width="21" height="11" fill="#C4C4C4"/>
<rect x="127" y="267" width="21" height="11" fill="#C4C4C4"/>
<rect x="193" y="256" width="21" height="11" fill="#C4C4C4"/>
<path d="M138 229H159V240H138V229Z" fill="#C4C4C4"/>
<rect x="279" y="358" width="21" height="11" fill="#C4C4C4"/>
<rect x="334.5" y="283.5" width="20" height="10" fill="#C4C4C4" stroke="black"/>
<rect x="324" y="358" width="21" height="11" fill="#C4C4C4"/>
<rect x="268" y="321" width="21" height="11" fill="#C4C4C4"/>
<rect x="303" y="267" width="21" height="11" fill="#C4C4C4"/>
<path d="M250 262H278V277H250V262Z" fill="#C4C4C4"/>
</svg>
